<svg width="1440" height="857" viewBox="0 0 1440 857" fill="none" xmlns="http://www.w3.org/2000/svg">
<g opacity="0.25" clip-path="url(#clip0_1_38)">
<path d="M537.354 711.536C271.65 590.552 110.316 373.839 176.927 227.578C201.462 173.813 253.519 137.199 322.574 118.207C246.503 132.943 179.853 175.35 132.802 235.241C84.3022 393.816 254.879 614.085 529.008 738.911C564.786 755.214 600.634 769.103 636.117 780.638H761.367C689.563 768.808 613.394 746.171 537.354 711.536Z" fill="url(#paint0_linear_1_38)"/>
<path d="M982.129 778.244C1062.55 773.762 1135.13 738.832 1189.16 683.935C1260.49 524.375 1087.01 289.814 800.684 159.421C757.407 139.72 714.061 123.575 671.355 110.819H560.609C633.103 122.521 710.139 145.306 787.017 180.324C1052.69 301.309 1214.04 518.022 1147.39 664.273C1120.64 722.993 1060.87 761.065 982.129 778.244Z" fill="#D4B59D"/>
<path d="M982.129 778C1062.55 773.519 1135.13 738.602 1189.16 683.725C1260.49 524.224 1087.01 289.748 800.684 159.404C757.407 139.71 714.061 123.571 671.355 110.819H560.609C633.103 122.517 710.139 145.293 787.017 180.299C1052.69 301.239 1214.04 517.872 1147.39 664.07C1120.64 722.768 1060.87 760.827 982.129 778Z" fill="#D4B59D"/>
<path d="M1040.48 503.071C1017.42 600.328 823.047 645.047 606.196 602.968C389.345 560.897 232.297 447.883 255.286 350.644C278.355 253.377 472.708 208.65 689.559 250.765C906.391 292.844 1063.45 405.813 1040.48 503.071ZM705.519 216.096C472.629 168.88 260.416 225.69 231.342 343.011C202.385 460.287 367.596 593.703 600.485 640.909C833.365 688.116 1045.61 631.306 1074.63 513.994C1103.59 396.691 938.379 263.302 705.519 216.096Z" fill="url(#paint1_linear_1_38)"/>
<path d="M933.746 538.578C905.092 615.402 751.129 631.981 589.834 575.675C428.589 519.359 321.085 411.436 349.74 334.622C378.424 257.836 532.417 241.248 693.672 297.554C854.947 353.889 962.411 461.832 933.746 538.578ZM722.386 274.503C551.868 199.176 378.66 212.671 335.413 304.646C292.234 396.621 395.412 532.244 565.9 607.571C736.437 682.908 909.644 669.423 952.863 577.438C996.041 485.473 892.893 349.831 722.386 274.503Z" fill="url(#paint2_linear_1_38)"/>
<path d="M1348.36 419.822C1348.36 420.147 1348.31 420.452 1348.31 420.797H1412.75C1412.75 420.452 1412.78 420.147 1412.78 419.822C1412.78 187.959 1248.84 6.10352e-05 1046.62 6.10352e-05H1011.68V55.6656H1016.21C1199.65 55.6656 1348.36 218.702 1348.36 419.822Z" fill="#AC7368"/>
<path d="M1348.36 419.822C1348.36 420.147 1348.31 420.452 1348.31 420.797H1412.75C1412.75 420.452 1412.78 420.147 1412.78 419.822C1412.78 187.959 1248.84 6.10352e-05 1046.62 6.10352e-05H1011.68V55.6656H1016.21C1199.65 55.6656 1348.36 218.702 1348.36 419.822Z" fill="url(#paint3_linear_1_38)"/>
</g>
<defs>
<linearGradient id="paint0_linear_1_38" x1="442.976" y1="780.638" x2="442.976" y2="118.207" gradientUnits="userSpaceOnUse">
<stop stop-color="#E29B53"/>
<stop offset="1" stop-color="#D4B59D"/>
</linearGradient>
<linearGradient id="paint1_linear_1_38" x1="652.987" y1="657.526" x2="652.987" y2="199.474" gradientUnits="userSpaceOnUse">
<stop stop-color="#E29B53"/>
<stop offset="1" stop-color="#D4B59D"/>
</linearGradient>
<linearGradient id="paint2_linear_1_38" x1="644.139" y1="656.313" x2="644.139" y2="225.772" gradientUnits="userSpaceOnUse">
<stop stop-color="#E29B53"/>
<stop offset="1" stop-color="#D4B59D"/>
</linearGradient>
<linearGradient id="paint3_linear_1_38" x1="1212.23" y1="420.797" x2="1212.23" y2="6.10352e-05" gradientUnits="userSpaceOnUse">
<stop stop-color="#E29B53"/>
<stop offset="1" stop-color="#D4B59D"/>
</linearGradient>
<clipPath id="clip0_1_38">
<rect width="1515" height="857" fill="white" transform="matrix(1 0 0 -1 -38 857)"/>
</clipPath>
</defs>
</svg>
