<svg width="796" height="450" viewBox="0 0 796 450" fill="none" xmlns="http://www.w3.org/2000/svg">
<g clip-path="url(#clip0_1_80)">
<path d="M688.172 234.768C688.172 331.668 612.665 410.227 519.525 410.227H217.767C124.622 410.227 49.1151 331.668 49.1151 234.768C49.1151 137.852 124.622 59.2938 217.767 59.2938H519.525C612.665 59.2938 688.172 137.852 688.172 234.768Z" fill="#212121"/>
<path d="M302.017 373.619C162.542 310.091 77.8545 196.298 112.82 119.498C125.699 91.2671 153.025 72.0412 189.273 62.0688C149.342 69.8068 114.356 92.074 89.6579 123.522C64.1993 206.788 153.739 322.448 297.636 387.993C316.417 396.553 335.234 403.846 353.86 409.903H419.606C381.915 403.691 341.932 391.805 302.017 373.619Z" fill="url(#paint0_linear_1_80)"/>
<path d="M535.49 408.646C577.707 406.293 615.802 387.952 644.167 359.126C681.605 275.343 590.545 152.178 440.245 83.7103C417.527 73.3654 394.774 64.8879 372.357 58.1896H314.224C352.277 64.3344 392.715 76.2982 433.071 94.6861C572.529 158.214 657.227 272.007 622.241 348.802C608.198 379.634 576.822 399.626 535.49 408.646Z" fill="#D4B59D"/>
<path d="M566.118 264.156C554.015 315.225 451.983 338.706 338.153 316.611C224.323 294.52 141.885 235.178 153.953 184.119C166.062 133.045 268.083 109.559 381.913 131.673C495.733 153.769 578.176 213.087 566.118 264.156ZM390.29 113.469C268.041 88.6768 156.645 118.507 141.384 180.111C126.184 241.691 212.907 311.746 335.156 336.533C457.4 361.321 568.811 331.491 584.047 269.892C599.247 208.297 512.524 138.257 390.29 113.469Z" fill="url(#paint1_linear_1_80)"/>
<path d="M510.092 282.8C495.051 323.14 414.232 331.845 329.565 302.28C244.923 272.709 188.492 216.04 203.534 175.705C218.591 135.386 299.425 126.676 384.072 156.242C468.729 185.823 525.139 242.502 510.092 282.8ZM399.144 144.138C309.635 104.585 218.715 111.671 196.013 159.966C173.348 208.261 227.508 279.474 317.001 319.028C406.52 358.586 497.441 351.505 520.127 303.205C542.792 254.916 488.647 183.692 399.144 144.138Z" fill="url(#paint2_linear_1_80)"/>
<path d="M727.731 220.443C727.731 220.614 727.705 220.774 727.705 220.955H761.533C761.533 220.774 761.548 220.614 761.548 220.443C761.548 98.6947 675.49 -6.10352e-05 569.341 -6.10352e-05H551V29.2292H553.379C649.669 29.2292 727.731 114.838 727.731 220.443Z" fill="#AC7368"/>
<path d="M727.731 220.443C727.731 220.614 727.705 220.774 727.705 220.955H761.533C761.533 220.774 761.548 220.614 761.548 220.443C761.548 98.6947 675.49 -6.10352e-05 569.341 -6.10352e-05H551V29.2292H553.379C649.669 29.2292 727.731 114.838 727.731 220.443Z" fill="url(#paint3_linear_1_80)"/>
</g>
<defs>
<linearGradient id="paint0_linear_1_80" x1="252.475" y1="409.903" x2="252.475" y2="62.0688" gradientUnits="userSpaceOnUse">
<stop stop-color="#E29B53"/>
<stop offset="1" stop-color="#D4B59D"/>
</linearGradient>
<linearGradient id="paint1_linear_1_80" x1="362.715" y1="345.259" x2="362.715" y2="104.741" gradientUnits="userSpaceOnUse">
<stop stop-color="#E29B53"/>
<stop offset="1" stop-color="#D4B59D"/>
</linearGradient>
<linearGradient id="paint2_linear_1_80" x1="358.07" y1="344.622" x2="358.07" y2="118.55" gradientUnits="userSpaceOnUse">
<stop stop-color="#E29B53"/>
<stop offset="1" stop-color="#D4B59D"/>
</linearGradient>
<linearGradient id="paint3_linear_1_80" x1="656.274" y1="220.955" x2="656.274" y2="-7.62939e-05" gradientUnits="userSpaceOnUse">
<stop stop-color="#E29B53"/>
<stop offset="1" stop-color="#D4B59D"/>
</linearGradient>
<clipPath id="clip0_1_80">
<rect width="795.259" height="450" fill="white" transform="matrix(1 0 0 -1 0 450)"/>
</clipPath>
</defs>
</svg>
