<svg width="1566" height="181" viewBox="0 0 1566 181" fill="none" xmlns="http://www.w3.org/2000/svg">
<g clip-path="url(#clip0_1_360)">
<path d="M127.031 131.741C127.031 144.622 124.758 156.739 114.908 166.841C103.044 178.964 87.1326 181.742 71.9734 181.742C58.5935 181.742 40.6619 179.469 29.8019 166.841C21.2149 156.991 19.1944 143.858 19.1944 131.741V21.6313H3.0307C0.252563 21.6313 0 20.1103 0 18.6006V8.24571C0 6.73036 0.252563 5.20941 3.0307 5.20941H56.0679C58.846 5.20941 59.0986 6.73036 59.0986 8.24571V18.6006C59.0986 20.1103 58.846 21.6313 56.0679 21.6313H39.9042V131.23C39.9042 139.318 40.4093 148.41 46.2181 155.728C52.5321 163.558 62.3762 164.826 71.7265 164.826C81.3181 164.826 90.6684 163.558 98.4977 155.476C104.812 148.915 106.327 141.338 106.327 131.23V21.6313H90.1632C88.6479 21.6313 87.1326 21.3731 87.1326 18.6006V8.24571C87.1326 6.73036 87.3851 5.20941 90.1632 5.20941H143.195C144.71 5.20941 146.226 5.46196 146.226 8.24571V18.6006C146.226 20.1103 145.973 21.6313 143.195 21.6313H127.031V131.741Z" fill="url(#paint0_linear_1_360)" fill-opacity="0.2"/>
<path d="M256.569 135.781C257.326 133.76 258.589 133.255 260.61 134.013L272.227 138.307C275.006 139.317 274.248 140.826 273.743 142.6L261.873 175.427C260.862 178.211 259.347 178.211 258.084 178.211H165.654C162.875 178.211 162.623 176.695 162.623 175.18V164.825C162.623 162.047 164.138 161.794 165.654 161.794H181.565V21.6303H165.654C162.875 21.6303 162.623 20.1149 162.623 18.5996V8.24467C162.623 6.72934 162.875 5.20837 165.654 5.20837H218.186C220.958 5.20837 221.216 6.72934 221.216 8.24467V18.5996C221.216 20.1149 220.958 21.6303 218.186 21.6303H202.274V160.532H247.729L256.569 135.781Z" fill="url(#paint1_linear_1_360)" fill-opacity="0.2"/>
<path d="M347.225 175.179C347.225 176.7 346.972 178.209 344.194 178.209H287.621C284.843 178.209 284.59 176.7 284.59 175.179V164.824C284.59 163.309 284.843 161.793 287.621 161.793H305.553V22.8918H278.787V51.4309C278.787 52.9463 278.529 54.4616 275.757 54.4616H264.644C263.129 54.4616 261.613 54.2091 261.613 51.4309V8.24908C261.613 6.72812 261.866 5.21277 264.644 5.21277H367.177C369.955 5.21277 370.208 6.72812 370.208 8.24908V51.4309C370.208 54.4616 368.692 54.4616 367.43 54.4616H355.812C354.297 54.4616 353.034 54.4616 353.034 51.4309V22.8918H326.263V161.793H344.194C346.972 161.793 347.225 163.309 347.225 164.824V175.179Z" fill="url(#paint2_linear_1_360)" fill-opacity="0.2"/>
<path d="M442.672 83.0007C451.764 83.0007 462.624 82.7425 470.453 74.9188C476.514 68.8518 478.282 60.7756 478.282 53.4458C478.282 46.8793 478.03 36.53 470.706 29.7109C463.129 22.8918 451.764 22.8918 444.945 22.8918H426.255V83.0007H442.672ZM516.671 175.179C516.671 177.957 515.156 178.209 513.641 178.209H488.89C487.374 178.209 485.859 178.209 484.344 175.431L444.44 99.417H426.255V161.793H442.419C445.197 161.793 445.45 163.309 445.45 164.824V175.179C445.45 177.957 443.934 178.209 442.419 178.209H389.634C386.856 178.209 386.604 176.694 386.604 175.179V164.824C386.604 162.046 388.119 161.793 389.634 161.793H405.546V21.629H389.634C386.856 21.629 386.604 20.1137 386.604 18.5984V8.24908C386.604 6.72812 386.856 5.21277 389.634 5.21277H451.006C489.647 5.21277 498.992 28.4481 498.992 49.663C498.992 67.3421 492.426 77.697 487.116 83.7583C480.808 91.0769 473.736 95.3704 465.654 97.6434L501.26 161.793H513.641C515.156 161.793 516.671 162.046 516.671 164.824V175.179Z" fill="url(#paint3_linear_1_360)" fill-opacity="0.2"/>
<path d="M598.476 53.1959C595.698 42.841 594.182 38.048 592.667 29.2085H592.162C590.899 35.5224 588.884 46.3768 586.858 53.1959L571.458 109.011H613.629L598.476 53.1959ZM666.666 175.176C666.666 177.954 665.151 178.207 663.636 178.207H612.619C609.841 178.207 609.588 176.697 609.588 175.176V164.827C609.588 163.306 609.841 161.796 612.619 161.796H628.278L618.428 126.69H566.659L557.062 161.796H573.22C576.004 161.796 576.256 163.306 576.256 164.827V175.176C576.256 177.954 574.741 178.207 573.22 178.207H522.461C519.683 178.207 519.431 176.697 519.431 175.176V164.827C519.431 162.048 520.946 161.796 522.461 161.796H534.837L581.807 7.99361C582.817 4.95729 584.332 5.20984 585.601 5.20984H600.496C601.759 5.20984 603.274 4.95729 604.285 7.99361L651.008 161.796H663.636C665.151 161.796 666.666 162.048 666.666 164.827V175.176Z" fill="url(#paint4_linear_1_360)" fill-opacity="0.2"/>
<path d="M817.151 25.1657L815.383 24.4024C813.868 23.6447 803.513 19.8619 792.148 19.8619C775.227 19.8619 765.377 29.9586 765.377 44.6126C765.377 57.2405 772.454 64.3122 780.53 69.8628C788.618 75.1666 796.442 78.4498 804.776 83.254C823.465 93.8559 839.124 107.999 839.124 132.245C839.124 156.737 822.202 181.74 785.582 181.74C768.66 181.74 748.461 175.18 741.137 170.634C739.869 169.87 738.611 168.866 738.611 164.825V135.528C738.611 132.75 740.127 132.497 741.636 132.497H752.749C755.533 132.497 755.78 134.013 755.78 135.528V156.238L757.048 156.737C768.161 161.289 775.99 163.556 786.339 163.556C808.312 163.556 816.394 148.408 816.394 134.77C816.394 116.081 803.513 108.252 789.622 100.422C778.257 93.8559 770.175 89.568 762.857 84.2587C752.496 76.6875 742.652 66.327 742.652 46.88C742.652 26.9279 754.012 16.5787 758.81 12.7903C768.66 5.20795 780.278 1.67775 792.906 1.67775C807.554 1.67775 821.697 5.96562 829.274 10.2647C833.568 12.5378 834.325 13.2954 834.325 17.8359V45.6229C834.325 47.1326 834.073 48.6536 831.295 48.6536H820.182C817.404 48.6536 817.151 47.1326 817.151 45.6229V25.1657Z" fill="black" fill-opacity="0.05"/>
<path d="M962.602 175.179C962.602 177.957 961.087 178.209 959.572 178.209H862.342C859.564 178.209 859.312 176.7 859.312 175.179V164.824C859.312 162.046 860.821 161.793 862.342 161.793H878.254V21.6347H862.342C859.564 21.6347 859.312 20.1137 859.312 18.604V8.24908C859.312 6.72812 859.564 5.21277 862.342 5.21277H957.804C960.588 5.21277 960.84 6.72812 960.84 8.24908V43.0965C960.84 44.6118 960.588 46.1272 957.804 46.1272H946.691C943.913 46.1272 943.661 44.6118 943.661 43.0965V22.8918H898.958V78.9541H948.712C951.49 78.9541 951.737 80.4751 951.737 81.9904V93.6081C951.737 96.3863 950.227 96.6388 948.712 96.6388H898.958V160.536H945.428V138.058C945.428 136.537 945.681 135.028 948.459 135.028H959.572C962.35 135.028 962.602 136.537 962.602 138.058V175.179Z" fill="black" fill-opacity="0.05"/>
<path d="M1036.84 83.0007C1045.93 83.0007 1056.79 82.7425 1064.61 74.9188C1070.67 68.8518 1072.45 60.7756 1072.45 53.4458C1072.45 46.8793 1072.19 36.53 1064.86 29.7109C1057.29 22.8918 1045.93 22.8918 1039.1 22.8918H1020.42V83.0007H1036.84ZM1110.84 175.179C1110.84 177.957 1109.31 178.209 1107.8 178.209H1083.05C1081.54 178.209 1080.02 178.209 1078.51 175.431L1038.6 99.417H1020.42V161.793H1036.58C1039.36 161.793 1039.61 163.309 1039.61 164.824V175.179C1039.61 177.957 1038.1 178.209 1036.58 178.209H983.804C981.02 178.209 980.768 176.694 980.768 175.179V164.824C980.768 162.046 982.283 161.793 983.804 161.793H999.709V21.629H983.804C981.02 21.629 980.768 20.1137 980.768 18.5984V8.24908C980.768 6.72812 981.02 5.21277 983.804 5.21277H1045.16C1083.81 5.21277 1093.16 28.4481 1093.16 49.663C1093.16 67.3421 1086.59 77.697 1081.29 83.7583C1074.97 91.0769 1067.9 95.3704 1059.82 97.6434L1095.42 161.793H1107.8C1109.31 161.793 1110.84 162.046 1110.84 164.824V175.179Z" fill="black" fill-opacity="0.05"/>
<path d="M1191.12 175.429C1190.36 178.713 1188.6 178.208 1187.33 178.208H1169.66C1168.39 178.208 1166.62 178.713 1165.87 175.429L1124.7 21.6328H1114.34C1111.57 21.6328 1111.32 20.1118 1111.32 18.6021V8.24724C1111.32 6.72627 1111.57 5.21092 1114.34 5.21092H1161.57C1164.35 5.21092 1164.6 6.72627 1164.6 8.24724V18.6021C1164.6 20.1118 1164.35 21.6328 1161.57 21.6328H1146.67L1174.71 139.314C1175.47 142.849 1177.74 155.983 1178.24 159.518H1178.75C1180.51 146.89 1181.78 142.849 1182.54 139.819L1211.58 21.6328H1197.94C1195.17 21.6328 1194.92 20.1118 1194.92 18.6021V7.99467C1194.92 6.47371 1194.92 5.21092 1197.94 5.21092H1242.14C1244.92 5.21092 1245.17 6.72627 1245.17 8.24724V18.6021C1245.17 20.1118 1244.92 21.6328 1242.14 21.6328H1232.79L1191.12 175.429Z" fill="black" fill-opacity="0.05"/>
<path d="M1320.92 161.793C1323.69 161.793 1323.94 163.309 1323.94 164.824V175.179C1323.94 176.694 1323.69 178.209 1320.92 178.209H1254.24C1251.47 178.209 1251.21 176.694 1251.21 175.179V164.824C1251.21 162.046 1252.73 161.793 1254.24 161.793H1277.23V21.6291H1254.24C1251.47 21.6291 1251.21 20.1137 1251.21 18.5984V8.2491C1251.21 6.72813 1251.47 5.21278 1254.24 5.21278H1320.92C1323.69 5.21278 1323.94 6.72813 1323.94 8.2491V18.5984C1323.94 20.1137 1323.69 21.6291 1320.92 21.6291H1297.93V161.793H1320.92Z" fill="black" fill-opacity="0.05"/>
<path d="M1440.86 162.298C1440.86 166.591 1441.11 167.349 1436.07 170.632C1422.94 179.219 1408.79 181.745 1399.45 181.745C1387.83 181.745 1369.14 177.956 1356.77 157.752C1344.39 137.547 1342.62 109.266 1342.62 90.0716C1342.62 69.8614 1344.9 41.5805 1357.77 22.8912C1367.12 9.25304 1380.76 1.6819 1399.95 1.6819C1409.8 1.6819 1419.4 3.69675 1431.02 10.2633C1440.1 15.32 1439.6 17.3349 1439.6 19.1028V47.1311C1439.6 48.6521 1439.35 50.1674 1436.57 50.1674H1425.46C1422.68 50.1674 1422.43 48.6521 1422.43 47.1311V25.6693L1420.91 24.6591C1416.12 21.3758 1406.77 18.5977 1398.94 18.5977C1387.07 18.5977 1379.5 24.154 1374.44 32.741C1366.37 46.3791 1365.35 66.073 1365.35 82.7418C1365.35 108.761 1368.38 133.506 1374.7 146.892C1381.52 161.035 1394.14 164.823 1401.97 164.823C1409.8 164.823 1416.62 161.54 1421.42 159.014L1423.69 157.752V136.032C1423.69 134.516 1423.94 133.001 1426.72 133.001H1437.84C1440.61 133.001 1440.86 134.516 1440.86 136.032V162.298Z" fill="black" fill-opacity="0.05"/>
<path d="M1564.34 175.179C1564.34 177.957 1562.82 178.209 1561.31 178.209H1464.08C1461.3 178.209 1461.05 176.7 1461.05 175.179V164.824C1461.05 162.046 1462.57 161.793 1464.08 161.793H1479.99V21.6347H1464.08C1461.3 21.6347 1461.05 20.1137 1461.05 18.604V8.24908C1461.05 6.72812 1461.3 5.21277 1464.08 5.21277H1559.55C1562.32 5.21277 1562.57 6.72812 1562.57 8.24908V43.0965C1562.57 44.6118 1562.32 46.1272 1559.55 46.1272H1548.43C1545.66 46.1272 1545.4 44.6118 1545.4 43.0965V22.8918H1500.7V78.9541H1550.45C1553.23 78.9541 1553.48 80.4751 1553.48 81.9904V93.6081C1553.48 96.3863 1551.97 96.6388 1550.45 96.6388H1500.7V160.536H1547.17V138.058C1547.17 136.537 1547.42 135.028 1550.19 135.028H1561.31C1564.09 135.028 1564.34 136.537 1564.34 138.058V175.179Z" fill="black" fill-opacity="0.05"/>
</g>
<defs>
<linearGradient id="paint0_linear_1_360" x1="73.1128" y1="181.742" x2="73.1128" y2="5.20941" gradientUnits="userSpaceOnUse">
<stop stop-color="#E29B53"/>
<stop offset="1" stop-color="#D4B59D"/>
</linearGradient>
<linearGradient id="paint1_linear_1_360" x1="218.428" y1="178.211" x2="218.428" y2="5.20837" gradientUnits="userSpaceOnUse">
<stop stop-color="#E29B53"/>
<stop offset="1" stop-color="#D4B59D"/>
</linearGradient>
<linearGradient id="paint2_linear_1_360" x1="315.91" y1="178.209" x2="315.91" y2="5.21277" gradientUnits="userSpaceOnUse">
<stop stop-color="#E29B53"/>
<stop offset="1" stop-color="#D4B59D"/>
</linearGradient>
<linearGradient id="paint3_linear_1_360" x1="451.637" y1="178.209" x2="451.637" y2="5.21277" gradientUnits="userSpaceOnUse">
<stop stop-color="#E29B53"/>
<stop offset="1" stop-color="#D4B59D"/>
</linearGradient>
<linearGradient id="paint4_linear_1_360" x1="593.049" y1="178.207" x2="593.049" y2="5.20471" gradientUnits="userSpaceOnUse">
<stop stop-color="#E29B53"/>
<stop offset="1" stop-color="#D4B59D"/>
</linearGradient>
<clipPath id="clip0_1_360">
<rect width="1565.86" height="181" fill="white" transform="matrix(1 0 0 -1 0 181)"/>
</clipPath>
</defs>
</svg>
