<svg width="51" height="52" viewBox="0 0 51 52" fill="none" xmlns="http://www.w3.org/2000/svg">
<path d="M35.386 31.9413C34.8026 31.6416 31.8966 30.218 31.356 30.0253C30.8155 29.822 30.4195 29.7256 30.0288 30.325C29.6327 30.9191 28.5089 32.241 28.1556 32.6424C27.8131 33.0384 27.4653 33.0866 26.8819 32.7922C23.4139 31.0582 21.1394 29.6989 18.8542 25.776C18.2494 24.7324 19.4589 24.8073 20.5882 22.5542C20.7808 22.1581 20.6845 21.821 20.5346 21.5213C20.3848 21.2216 19.2074 18.3209 18.715 17.1381C18.2387 15.9875 17.7463 16.148 17.3878 16.1266C17.0453 16.1052 16.6546 16.1052 16.2585 16.1052C15.8625 16.1052 15.2256 16.2551 14.6851 16.8384C14.1446 17.4325 12.6193 18.8614 12.6193 21.7621C12.6193 24.6628 14.7333 27.4725 15.0223 27.8685C15.322 28.2646 19.1806 34.2158 25.1051 36.7793C28.8514 38.3956 30.3178 38.5347 32.1909 38.2564C33.3308 38.0852 35.6803 36.8329 36.1673 35.4467C36.6543 34.066 36.6543 32.8832 36.5098 32.637C36.3653 32.3748 35.9693 32.2249 35.386 31.9413Z" fill="white"/>
<path d="M48.5154 16.4212C47.2423 13.396 45.417 10.6807 43.0904 8.34841C40.7638 6.02178 38.0485 4.19089 35.0177 2.92335C31.9193 1.62201 28.6294 0.962891 25.2381 0.962891H25.1254C21.7115 0.979791 18.4047 1.65581 15.2951 2.98532C12.2924 4.26976 9.59966 6.09501 7.29558 8.42165C4.99151 10.7483 3.18318 13.4524 1.93256 16.4663C0.636867 19.5873 -0.0166112 22.9054 0.000289082 26.3193C0.0171894 30.2289 0.952339 34.1104 2.70434 37.5807V46.1436C2.70434 47.5745 3.86482 48.735 5.29572 48.735H13.8642C17.3344 50.487 21.2158 51.4222 25.1254 51.4391H25.2437C28.6181 51.4391 31.8911 50.7856 34.9726 49.5068C37.9865 48.2505 40.6962 46.4478 43.0172 44.1437C45.3438 41.8396 47.1747 39.1468 48.4534 36.1441C49.7829 33.0344 50.4589 29.7276 50.4758 26.3137C50.4927 22.8829 49.828 19.5535 48.5154 16.4212ZM40.0033 41.096C36.0543 45.0056 30.8152 47.1576 25.2381 47.1576H25.1423C21.7453 47.1407 18.3709 46.2957 15.3908 44.707L14.9176 44.4535H6.98575V36.5216L6.73224 36.0483C5.14361 33.0682 4.2986 29.6938 4.2817 26.2968C4.25916 20.6802 6.4055 15.4072 10.3433 11.4356C14.2754 7.46395 19.5314 5.26689 25.1479 5.24435H25.2437C28.0604 5.24435 30.7926 5.7908 33.3671 6.87244C35.8796 7.9259 38.133 9.44131 40.0709 11.3792C42.0032 13.3115 43.5242 15.5706 44.5776 18.0831C45.6705 20.6858 46.217 23.4462 46.2057 26.2968C46.1719 31.9077 43.9692 37.1638 40.0033 41.096Z" fill="white"/>
</svg>
