<svg width="1212" height="971" viewBox="0 0 1212 971" fill="none" xmlns="http://www.w3.org/2000/svg">
<g opacity="0.05" clip-path="url(#clip0_1_290)">
<path d="M1497.77 507.623C1497.77 716.711 1334.82 886.223 1133.81 886.223H482.577C281.559 886.223 118.605 716.711 118.605 507.623C118.605 298.501 281.559 128.989 482.577 128.989H1133.81C1334.82 128.989 1497.77 298.501 1497.77 507.623Z" fill="#212121"/>
<path d="M652.156 806.185C351.153 669.107 168.385 423.566 243.845 257.849C271.641 196.933 330.613 155.448 408.842 133.929C322.665 150.626 247.161 198.674 193.859 266.532C138.916 446.201 332.154 695.77 642.701 837.201C683.233 855.673 723.843 871.41 764.04 884.479H905.929C824.586 871.075 738.298 845.427 652.156 806.185Z" fill="url(#paint0_linear_1_290)"/>
<path d="M1156.02 881.767C1247.13 876.689 1329.34 837.112 1390.56 774.913C1471.36 594.128 1274.84 328.364 950.469 180.627C901.443 158.305 852.338 140.013 803.959 125.559H678.501C760.625 138.818 847.895 164.634 934.987 204.311C1235.96 341.389 1418.75 586.929 1343.24 752.635C1312.93 819.166 1245.22 862.303 1156.02 881.767Z" fill="#D4B59D"/>
<path d="M1156.02 881.491C1247.13 876.414 1329.34 836.852 1390.56 774.675C1471.36 593.957 1274.84 328.291 950.469 180.608C901.443 158.294 852.338 140.008 803.959 125.56H678.501C760.625 138.814 847.895 164.62 934.987 204.282C1235.96 341.311 1418.75 586.761 1343.24 752.406C1312.93 818.912 1245.22 862.033 1156.02 881.491Z" fill="#D4B59D"/>
<path d="M1222.12 569.99C1196 680.185 975.803 730.852 730.143 683.175C484.483 635.509 306.571 507.462 332.615 397.287C358.748 287.082 578.922 236.405 824.582 284.122C1070.22 331.799 1248.14 459.795 1222.12 569.99ZM842.662 244.841C578.832 191.345 338.426 255.712 305.489 388.639C272.686 521.515 459.845 672.678 723.674 726.164C987.492 779.65 1227.93 715.283 1260.81 582.366C1293.62 449.46 1106.46 298.327 842.662 244.841Z" fill="url(#paint1_linear_1_290)"/>
<path d="M1101.21 610.219C1068.75 697.263 894.331 716.047 711.608 652.251C528.941 588.444 407.156 466.165 439.617 379.132C472.112 292.133 646.563 273.338 829.241 337.133C1011.94 400.963 1133.68 523.264 1101.21 610.219ZM861.769 311.017C668.598 225.669 472.38 240.96 423.386 345.169C374.471 449.379 491.356 603.042 684.494 688.39C877.687 773.749 1073.91 758.469 1122.87 654.249C1171.78 550.05 1054.93 396.364 861.769 311.017Z" fill="url(#paint2_linear_1_290)"/>
</g>
<defs>
<linearGradient id="paint0_linear_1_290" x1="545.24" y1="884.479" x2="545.24" y2="133.929" gradientUnits="userSpaceOnUse">
<stop stop-color="#E29B53"/>
<stop offset="1" stop-color="#D4B59D"/>
</linearGradient>
<linearGradient id="paint1_linear_1_290" x1="783.151" y1="744.991" x2="783.151" y2="226.008" gradientUnits="userSpaceOnUse">
<stop stop-color="#E29B53"/>
<stop offset="1" stop-color="#D4B59D"/>
</linearGradient>
<linearGradient id="paint2_linear_1_290" x1="773.127" y1="743.616" x2="773.127" y2="255.803" gradientUnits="userSpaceOnUse">
<stop stop-color="#E29B53"/>
<stop offset="1" stop-color="#D4B59D"/>
</linearGradient>
<clipPath id="clip0_1_290">
<rect width="1716.27" height="971" fill="white" transform="matrix(1 0 0 -1 0.365234 971)"/>
</clipPath>
</defs>
</svg>
