<svg width="117" height="66" viewBox="0 0 117 66" fill="none" xmlns="http://www.w3.org/2000/svg">
<g clip-path="url(#clip0_1_154)">
<path d="M100.932 34.4326C100.932 48.6446 89.8575 60.1665 76.197 60.1665H31.9391C18.2778 60.1665 7.20349 48.6446 7.20349 34.4326C7.20349 20.2183 18.2778 8.69637 31.9391 8.69637H76.197C89.8575 8.69637 100.932 20.2183 100.932 34.4326Z" fill="#212121"/>
<path d="M44.2957 54.7974C23.8395 45.48 11.4186 28.7904 16.5469 17.5264C18.4359 13.3858 22.4437 10.566 27.7601 9.10342C21.9035 10.2383 16.7722 13.5042 13.1498 18.1166C9.41588 30.3289 22.5484 47.2924 43.6532 56.9056C46.4077 58.1611 49.1676 59.2308 51.8994 60.1191H61.5422C56.0142 59.208 50.15 57.4647 44.2957 54.7974Z" fill="url(#paint0_linear_1_154)"/>
<path d="M78.5385 59.9348C84.7303 59.5896 90.3176 56.8996 94.4778 52.6718C99.9687 40.3836 86.6132 22.3194 64.5692 12.2775C61.2374 10.7603 57.9002 9.51688 54.6123 8.53447H46.0862C51.6674 9.43571 57.5982 11.1904 63.517 13.8873C83.9709 23.2047 96.3934 39.8943 91.262 51.1576C89.2024 55.6797 84.6006 58.6118 78.5385 59.9348Z" fill="#D4B59D"/>
<path d="M83.0306 38.7429C81.2554 46.233 66.2908 49.6769 49.5958 46.4363C32.9007 43.1963 20.8097 34.4928 22.5797 27.0041C24.3557 19.5133 39.3187 16.0687 56.0138 19.3121C72.7074 22.5527 84.7991 31.2528 83.0306 38.7429ZM57.2425 16.6421C39.3126 13.0059 22.9746 17.381 20.7362 26.4162C18.5069 35.448 31.2262 45.7227 49.1561 49.3583C67.0852 52.9938 83.4256 48.6187 85.6602 39.5841C87.8895 30.5503 75.1701 20.2776 57.2425 16.6421Z" fill="url(#paint1_linear_1_154)"/>
<path d="M74.8135 41.4773C72.6074 47.3937 60.754 48.6705 48.3361 44.3342C35.9221 39.9972 27.6455 31.6857 29.8516 25.77C32.0599 19.8566 43.9157 18.5791 56.3305 22.9153C68.7468 27.2539 77.0203 35.5668 74.8135 41.4773ZM58.5411 21.1402C45.4132 15.339 32.0781 16.3783 28.7485 23.4615C25.4243 30.5448 33.3678 40.9895 46.4934 46.7906C59.6229 52.5926 72.9579 51.554 76.2852 44.47C79.6095 37.3875 71.6683 26.9413 58.5411 21.1402" fill="url(#paint2_linear_1_154)"/>
<path d="M106.714 32.3316C106.714 32.3567 106.71 32.3802 106.71 32.4067H111.671C111.671 32.3802 111.674 32.3567 111.674 32.3316C111.674 14.4752 99.0516 -1.8766e-05 83.4832 -1.8766e-05H80.7931V4.28695H81.1421C95.2645 4.28695 106.714 16.8429 106.714 32.3316Z" fill="#AC7368"/>
<path d="M106.714 32.3316C106.714 32.3567 106.71 32.3802 106.71 32.4067H111.671C111.671 32.3802 111.674 32.3567 111.674 32.3316C111.674 14.4752 99.0516 -1.8766e-05 83.4832 -1.8766e-05H80.7931V4.28695H81.1421C95.2645 4.28695 106.714 16.8429 106.714 32.3316Z" fill="url(#paint3_linear_1_154)"/>
</g>
<defs>
<linearGradient id="paint0_linear_1_154" x1="37.0297" y1="60.1191" x2="37.0297" y2="9.10342" gradientUnits="userSpaceOnUse">
<stop stop-color="#E29B53"/>
<stop offset="1" stop-color="#D4B59D"/>
</linearGradient>
<linearGradient id="paint1_linear_1_154" x1="53.1982" y1="50.6379" x2="53.1982" y2="15.3621" gradientUnits="userSpaceOnUse">
<stop stop-color="#E29B53"/>
<stop offset="1" stop-color="#D4B59D"/>
</linearGradient>
<linearGradient id="paint2_linear_1_154" x1="52.517" y1="50.5444" x2="52.517" y2="17.3872" gradientUnits="userSpaceOnUse">
<stop stop-color="#E29B53"/>
<stop offset="1" stop-color="#D4B59D"/>
</linearGradient>
<linearGradient id="paint3_linear_1_154" x1="96.2333" y1="32.4067" x2="96.2333" y2="-1.90735e-05" gradientUnits="userSpaceOnUse">
<stop stop-color="#E29B53"/>
<stop offset="1" stop-color="#D4B59D"/>
</linearGradient>
<clipPath id="clip0_1_154">
<rect width="116.638" height="66" fill="white" transform="matrix(1 0 0 -1 0 66)"/>
</clipPath>
</defs>
</svg>
