<svg width="548" height="310" viewBox="0 0 548 310" fill="none" xmlns="http://www.w3.org/2000/svg">
<path d="M474.208 161.729C474.208 228.482 422.178 282.601 357.997 282.601H150.06C85.875 282.601 33.8444 228.482 33.8444 161.729C33.8444 94.9651 85.875 40.8469 150.06 40.8469H357.997C422.178 40.8469 474.208 94.9651 474.208 161.729Z" fill="#212121"/>
<path d="M208.115 257.382C112.005 213.619 53.6482 135.228 77.7424 82.321C86.6174 62.873 105.447 49.6285 130.425 42.7586C102.909 48.0892 78.801 63.4288 61.7818 85.0932C44.2387 142.454 105.939 222.131 205.096 267.284C218.038 273.181 231.004 278.205 243.839 282.378H289.144C263.171 278.099 235.62 269.91 208.115 257.382Z" fill="url(#paint0_linear_1_251)"/>
<path d="M368.997 281.512C398.088 279.891 424.339 267.256 443.885 247.398C469.683 189.681 406.935 104.833 303.366 57.667C287.711 50.5406 272.032 44.7005 256.585 40.0861H216.527C242.749 44.3192 270.614 52.5609 298.422 65.2282C394.521 108.992 452.885 187.382 428.776 240.286C419.1 261.526 397.479 275.298 368.997 281.512Z" fill="#D4B59D"/>
<path d="M368.997 281.424C398.088 279.803 424.339 267.172 443.885 247.322C469.683 189.626 406.935 104.81 303.366 57.6608C287.711 50.537 272.032 44.699 256.585 40.0863H216.527C242.749 44.3179 270.614 52.5566 298.422 65.2192C394.521 108.967 452.885 187.329 428.776 240.212C419.1 261.445 397.479 275.212 368.997 281.424Z" fill="#D4B59D"/>
<path d="M390.103 181.974C381.762 217.155 311.455 233.331 233.016 218.11C154.578 202.892 97.7706 162.011 106.086 126.837C114.431 91.6533 184.731 75.4742 263.17 90.7083C341.601 105.929 398.412 146.793 390.103 181.974ZM268.943 78.1675C184.703 61.0884 107.942 81.6381 97.4252 124.076C86.9513 166.498 146.711 214.758 230.95 231.834C315.187 248.91 391.959 228.36 402.457 185.925C412.931 143.494 353.172 95.2433 268.943 78.1675Z" fill="url(#paint1_linear_1_251)"/>
<path d="M351.496 194.818C341.132 222.607 285.441 228.604 227.098 208.237C168.773 187.866 129.887 148.827 140.252 121.041C150.627 93.2662 206.329 87.2657 264.658 107.633C322.993 128.011 361.865 167.057 351.496 194.818ZM275.044 99.2951C213.365 72.0472 150.713 76.9288 135.069 110.199C119.451 143.468 156.772 192.527 218.44 219.775C280.126 247.026 342.778 242.148 358.411 208.875C374.029 175.609 336.719 126.543 275.044 99.2951Z" fill="url(#paint2_linear_1_251)"/>
<path d="M501.468 151.861C501.468 151.979 501.45 152.089 501.45 152.214H524.76C524.76 152.089 524.771 151.979 524.771 151.861C524.771 67.99 465.469 0.000198364 392.324 0.000198364H379.685V20.1359H381.325C447.676 20.1359 501.468 79.1108 501.468 151.861Z" fill="#AC7368"/>
<path d="M501.468 151.861C501.468 151.979 501.45 152.089 501.45 152.214H524.76C524.76 152.089 524.771 151.979 524.771 151.861C524.771 67.99 465.469 0.000198364 392.324 0.000198364H379.685V20.1359H381.325C447.676 20.1359 501.468 79.1108 501.468 151.861Z" fill="url(#paint3_linear_1_251)"/>
<defs>
<linearGradient id="paint0_linear_1_251" x1="173.977" y1="282.378" x2="173.977" y2="42.7586" gradientUnits="userSpaceOnUse">
<stop stop-color="#E29B53"/>
<stop offset="1" stop-color="#D4B59D"/>
</linearGradient>
<linearGradient id="paint1_linear_1_251" x1="249.941" y1="237.845" x2="249.941" y2="72.1551" gradientUnits="userSpaceOnUse">
<stop stop-color="#E29B53"/>
<stop offset="1" stop-color="#D4B59D"/>
</linearGradient>
<linearGradient id="paint2_linear_1_251" x1="246.741" y1="237.406" x2="246.741" y2="81.6678" gradientUnits="userSpaceOnUse">
<stop stop-color="#E29B53"/>
<stop offset="1" stop-color="#D4B59D"/>
</linearGradient>
<linearGradient id="paint3_linear_1_251" x1="452.228" y1="152.214" x2="452.228" y2="0.000198364" gradientUnits="userSpaceOnUse">
<stop stop-color="#E29B53"/>
<stop offset="1" stop-color="#D4B59D"/>
</linearGradient>
</defs>
</svg>
